<?xml version="1.0" encoding="utf-8"?>
<!-- Generator: Adobe Illustrator 24.3.0, SVG Export Plug-In . SVG Version: 6.00 Build 0)  -->
<svg version="1.1" id="Calque_1" xmlns="http://www.w3.org/2000/svg" xmlns:xlink="http://www.w3.org/1999/xlink" x="0px" y="0px"
	 viewBox="0 0 340.32 108.32" style="enable-background:new 0 0 340.32 108.32;" xml:space="preserve">
<style type="text/css">
	.st0{fill:#FFFFFF;}
</style>
<path class="st0" d="M296.48,58.45c-3.7,0-7.3,0.19-10.74,0.55c1.54-20.15-31.47-35.4-59.2-32.02
	C214.31-8.99,105.96-8.98,93.71,26.95c-12.05,1.23-21.2,5.87-22.14,11.54c-30.86,1.17-63.64,10.8-33.91,22.4
	c-74.58,12.81-32.67,43.99,33.5,42.35c16.28,0,31.31-1.6,43.5-4.32c21.18,26.03,136.83-9.99,144.62-12.69
	c14.55,13.2,81.23,10.81,81.03-9.61C340.32,66.59,320.69,58.45,296.48,58.45z M119.34,61.86c0.11,0.04,0.22,0.09,0.34,0.13
	c-0.22-0.01-0.44-0.03-0.67-0.04C119.12,61.92,119.23,61.89,119.34,61.86z"/>
</svg>
