<?xml version="1.0" encoding="utf-8"?>
<!-- Generator: Adobe Illustrator 24.3.0, SVG Export Plug-In . SVG Version: 6.00 Build 0)  -->
<svg version="1.1" id="Calque_1" xmlns="http://www.w3.org/2000/svg" xmlns:xlink="http://www.w3.org/1999/xlink" x="0px" y="0px"
	 viewBox="0 0 188.29 328.61" style="enable-background:new 0 0 188.29 328.61;" xml:space="preserve">
<style type="text/css">
	.st0{fill:#FFFFFF;}
</style>
<path class="st0" d="M188.29,112.66C188.29,50.44,146.14,0,94.14,0S0,50.44,0,112.66c0,28.53,8.86,54.57,23.47,74.42l0,0l0,0.01
	c3.32,4.51,6.93,8.69,10.81,12.52l20.05,23.23l19.41,78.16c-1.66-0.32-3.61,1.76-4.41,4.74c-0.82,3.06-0.12,5.91,1.57,6.36
	c1.08,0.29,2.29-0.47,3.24-1.85v0.73v4.62v4.62c0,4.64,3.76,8.4,8.4,8.4h22.71c4.64,0,8.4-3.76,8.4-8.4v-4.62v-4.62v-2.34
	c0.86,2.92,2.82,4.91,4.46,4.47c1.69-0.45,2.39-3.3,1.57-6.36c-0.82-3.06-2.85-5.18-4.54-4.72c-0.26,0.07-0.49,0.22-0.71,0.4
	l19.56-80.38l18.57-21.05c4.37-4.15,8.43-8.74,12.12-13.74l0.14-0.15l-0.04,0.02c0.6-0.81,1.21-1.62,1.79-2.46
	C180.13,165.12,188.29,140.03,188.29,112.66z M62.51,225.31h17.77l4.43,24.68h6.5v45.48H76.15L62.51,225.31z M112.14,295.47H97.06
	v-45.48h5.5l4.43-24.68h18.77L112.14,295.47z M107.62,213.05h-27.1c-12.27-17.4-19.03-58.11-19.03-100.39
	c0-56,11.6-112.45,32.4-112.45s31.91,56.45,31.91,112.45C125.8,154.94,119.61,195.64,107.62,213.05z"/>
</svg>
